<svg width="30" height="30" viewBox="0 0 44 44" fill="none" xmlns="http://www.w3.org/2000/svg">
            <circle cx="22" cy="22" r="22" fill="#DDE8FF"/>
            <g clipPath="url(#clip0_39_8504)">
            <path d="M31.0006 14L24.5006 32C24.4567 32.0957 24.3862 32.1769 24.2976 32.2338C24.209 32.2906 24.1059 32.3209 24.0006 32.3209C23.8952 32.3209 23.7921 32.2906 23.7035 32.2338C23.6149 32.1769 23.5444 32.0957 23.5006 32L20.0006 25L13.0006 21.5C12.9048 21.4561 12.8237 21.3857 12.7668 21.2971C12.7099 21.2084 12.6797 21.1053 12.6797 21C12.6797 20.8947 12.7099 20.7916 12.7668 20.7029C12.8237 20.6143 12.9048 20.5439 13.0006 20.5L31.0006 14Z" stroke="#407BFF" strokeWidth="1.5" strokeLinecap="round" strokeLinejoin="round"/>
            </g>
            <defs>
            <clipPath id="clip0_39_8504">
            <rect width="24" height="24" fill="white" transform="translate(10 11)"/>
            </clipPath>
            </defs>
            </svg>