 <svg width="30" height="30" viewBox="0 0 44 44" fill="none" xmlns="http://www.w3.org/2000/svg">
            <circle cx="22" cy="22" r="22" fill="#DDE8FF"/>
            <g clipPath="url(#clip0_39_8502)">
            <path d="M15 14H19L21 19L18.5 20.5C19.571 22.6715 21.3285 24.429 23.5 25.5L25 23L30 25V29C30 29.5304 29.7893 30.0391 29.4142 30.4142C29.0391 30.7893 28.5304 31 28 31C24.0993 30.763 20.4202 29.1065 17.6568 26.3432C14.8935 23.5798 13.237 19.9007 13 16C13 15.4696 13.2107 14.9609 13.5858 14.5858C13.9609 14.2107 14.4696 14 15 14Z" stroke="#407BFF" strokeWidth="1.5" strokeLinecap="round" strokeLinejoin="round"/>
            </g>
            <defs>
            <clipPath id="clip0_39_8502">
            <rect width="24" height="24" fill="white" transform="translate(10 10)"/>
            </clipPath>
            </defs>
            </svg>