<svg xmlns="http://www.w3.org/2000/svg" width="151" height="55" viewBox="0 0 151 55" fill="none">
  <g clip-path="url(#clip0_214_860)">
    <path d="M24.6056 31.8715C24.5293 31.9306 24.455 31.9886 24.3827 32.0453C24.3635 32.0069 24.4426 31.9479 24.6056 31.8715C27.7224 29.4559 34.0561 25.0884 36.1645 25.6634H36.9009L39.3554 27.8725C34.7783 28.9799 26.1112 31.1664 24.6056 31.8715Z" fill="#B2DCEE"/>
    <path d="M0.325195 0.575439V11.6209V11.8663L2.77974 11.7905V2.78453C15.707 2.6209 41.5125 2.3918 41.3161 2.78453C41.0707 3.27544 36.8979 6.95726 34.6888 8.42999C23.8888 16.6773 13.8252 18.5755 10.1434 18.4936V22.1754H10.3888C11.207 22.2573 13.727 22.3718 17.2616 22.1754C21.6797 21.93 21.4343 21.6845 29.2888 18.9845C37.1434 16.2845 42.8854 9.04338 42.2979 11.6209C41.5195 15.0364 41.6516 20.7899 41.807 21.6845L45.7343 22.9118C46.2385 18.7079 47.161 16.0838 50.6434 10.6391V21.6845V38.8663H53.0979V38.3754V0.575439H52.3616H0.325195Z" fill="#008E22"/>
    <path d="M53.0979 49.6664V38.6209V38.3755L50.6434 38.4513V47.4573C37.7161 47.6209 11.9107 47.85 12.107 47.4573C12.3525 46.9664 16.5252 43.2846 18.7343 41.8119C29.5343 33.5646 39.5979 31.6664 43.2797 31.7482V28.0664H43.0343C42.2161 27.9846 39.6961 27.87 36.1616 28.0664C31.7434 28.3119 31.9888 28.5573 24.1343 31.2573C16.2797 33.9573 10.5377 41.1985 11.1252 38.6209C11.9036 35.2054 11.7715 29.4519 11.6161 28.5573L7.68883 27.33C7.18462 31.534 6.26215 34.158 2.77974 39.6028V28.5573V11.3755H0.325195V11.8664V49.6664H1.06156H53.0979Z" fill="#005D80"/>
    <path d="M13.5801 12.6028C18.6855 12.6028 26.5073 11.7846 29.7801 11.3755C29.8619 11.3755 29.9764 11.4737 29.7801 11.8664C29.5346 12.3573 24.6255 14.5664 23.6437 15.0573C22.8583 15.45 16.6074 15.7118 13.5801 15.7937V12.6028Z" fill="#B5EEB9"/>
    <path d="M83.0184 30.2263C79.0779 30.2263 75.9626 29.0007 73.6715 26.5494C71.4035 24.0753 70.2695 20.9711 70.2695 17.2369C70.2695 13.4798 71.5066 10.3756 73.9808 7.92435C76.455 5.47307 79.6164 4.24744 83.4652 4.24744C86.5122 4.24744 89.2152 4.62544 91.575 5.38144C91.6894 5.45016 91.7468 5.54182 91.7468 5.65635C91.7468 5.748 91.7124 6.10307 91.6437 6.72162C91.3457 8.85216 91.1857 10.41 91.1626 11.3951C90.819 11.4638 90.5784 11.4982 90.441 11.4982C90.3035 11.4982 90.0973 11.4524 89.8224 11.3607C89.6163 9.77998 89.4101 8.60018 89.2039 7.82125C88.6084 7.17978 87.7719 6.62997 86.6954 6.1718C85.6188 5.71363 84.393 5.48453 83.0184 5.48453C80.4068 5.48453 78.2419 6.40091 76.5237 8.23362C74.8286 10.0663 73.9808 12.5749 73.9808 15.7593C73.9808 18.0043 74.3475 20.112 75.0804 22.0822C75.8364 24.0523 76.9474 25.6789 78.4137 26.9618C79.9026 28.2218 81.667 28.8518 83.7057 28.8518C85.7445 28.8518 87.5544 28.302 89.1352 27.2023C89.5706 26.4693 90.1086 25.2436 90.7503 23.5254C91.3001 23.5254 91.7237 23.64 92.0217 23.8691C91.7011 25.5185 91.4606 27.1794 91.3001 28.8518C91.277 29.1038 91.1283 29.2527 90.8534 29.2985C88.6541 29.9171 86.0424 30.2263 83.0184 30.2263Z" fill="#005D80"/>
    <path d="M97.7362 4.69421L102.203 4.7973L106.602 4.69421C106.648 4.83167 106.671 5.00349 106.671 5.20967L106.602 5.75949C105.594 5.75949 104.826 5.79385 104.3 5.86258C103.91 5.90838 103.716 8.48565 103.716 13.5944V19.1957C103.716 21.372 103.761 23.4568 103.853 25.4499C103.967 27.4429 104.105 28.4509 104.265 28.4739C104.861 28.5426 105.869 28.5769 107.289 28.5769C107.335 28.7373 107.358 28.9206 107.358 29.1268C107.358 29.3329 107.335 29.5048 107.289 29.6422L102.925 29.5391C100.52 29.5391 98.5497 29.6308 97.0146 29.814C96.9002 29.6995 96.8428 29.5048 96.8428 29.2299L96.8771 28.9549C98.3661 28.6342 99.2826 28.2562 99.6262 27.8209C99.8324 27.546 99.9699 27.3055 100.039 27.0993C100.107 26.8931 100.165 26.5724 100.21 26.1371C100.485 24.3502 100.623 21.4522 100.623 17.4431V13.5944C100.623 8.48565 100.428 5.90838 100.039 5.86258C99.5118 5.79385 98.7441 5.75949 97.7362 5.75949C97.6906 5.59911 97.6675 5.41585 97.6675 5.20967C97.6675 5.00349 97.6906 4.83167 97.7362 4.69421Z" fill="#008E22"/>
    <path d="M125.826 19.5049L131.325 19.608C132.401 19.608 133.455 19.5163 134.486 19.3331C134.578 19.5622 134.623 19.7569 134.623 19.9173L134.555 20.3296C133.684 20.6962 133.203 21.4407 133.111 22.5633C132.951 24.1211 132.871 26.3203 132.871 29.1611C131.496 29.1611 129.904 29.3329 128.094 29.6765C126.284 30.0431 124.841 30.2263 123.765 30.2263C119.824 30.2263 116.709 29.0007 114.418 26.5494C112.15 24.0753 111.016 20.9711 111.016 17.2369C111.016 13.4798 112.253 10.3756 114.727 7.92435C117.201 5.47307 120.363 4.24744 124.211 4.24744C127.327 4.24744 130.087 4.57962 132.493 5.24398C132.653 5.2898 132.733 5.36998 132.733 5.48453C132.733 5.59906 132.722 5.748 132.699 5.93125C132.699 6.11451 132.676 6.37798 132.63 6.72162C132.607 7.04233 132.585 7.40889 132.562 7.82125C132.516 8.69178 132.493 9.83727 132.493 11.2576C132.332 11.3493 132.115 11.3951 131.84 11.3951C131.565 11.3951 131.348 11.3607 131.187 11.292C130.775 9.43635 130.477 8.27942 130.294 7.82125C128.484 6.26345 126.284 5.48453 123.696 5.48453C121.13 5.48453 118.988 6.40091 117.27 8.23362C115.575 10.0663 114.727 12.5749 114.727 15.7593C114.727 18.0043 115.094 20.112 115.827 22.0822C116.583 24.0523 117.693 25.6789 119.16 26.9618C120.649 28.2218 122.367 28.8518 124.314 28.8518C126.284 28.8518 128.163 28.4394 129.95 27.6147V25.5185C129.95 23.8003 129.881 22.2425 129.744 20.8451C128.575 20.7076 127.27 20.6389 125.826 20.6389C125.735 20.4785 125.689 20.2953 125.689 20.0891L125.826 19.5049Z" fill="#008E22"/>
    <path d="M64.1141 49.1754H60.3145V48.4096L61.5515 48.1298V39.7205L60.3145 39.426V38.6602H64.1141V39.426L62.877 39.7205V48.1298L64.1141 48.4096V49.1754ZM69.2519 49.1754H65.4523V48.4096L66.6894 48.1298V39.7205L65.4523 39.426V38.6602H69.2519V39.426L68.0149 39.7205V48.1298L69.2519 48.4096V49.1754ZM74.758 49.1754H73.4325V39.8236H70.1483V38.6602H78.0274V39.8236H74.758V49.1754ZM86.6345 38.6602C87.5084 38.6602 88.2251 38.7731 88.7847 38.9989C89.3542 39.2149 89.7764 39.5438 90.0513 39.9856C90.3262 40.4274 90.4636 40.9822 90.4636 41.6498C90.4636 42.2094 90.3605 42.6758 90.1544 43.0489C89.9482 43.422 89.6831 43.7214 89.3591 43.9473C89.0449 44.1633 88.7111 44.3351 88.3576 44.4627L91.2442 49.1754H89.6978L87.15 44.8309H85.0587V49.1754H83.7333V38.6602H86.6345ZM86.5609 39.8089H85.0587V43.7116H86.6345C87.204 43.7116 87.6704 43.638 88.0336 43.4907C88.3969 43.3336 88.662 43.1078 88.8289 42.8133C89.0056 42.5187 89.094 42.1505 89.094 41.7087C89.094 41.2473 89.0007 40.8791 88.8142 40.6042C88.6375 40.3293 88.3625 40.128 87.9895 40.0003C87.6164 39.8727 87.1402 39.8089 86.5609 39.8089ZM102.217 43.9031C102.217 44.718 102.114 45.4593 101.908 46.1269C101.702 46.7847 101.392 47.3542 100.98 47.8353C100.577 48.3163 100.072 48.6845 99.463 48.9398C98.8641 49.1951 98.167 49.3227 97.3717 49.3227C96.547 49.3227 95.8303 49.1951 95.2215 48.9398C94.6128 48.6747 94.1072 48.3065 93.7046 47.8353C93.3021 47.3542 93.0026 46.7798 92.8063 46.1122C92.6099 45.4445 92.5117 44.7033 92.5117 43.8884C92.5117 42.8084 92.6884 41.8658 93.0419 41.0607C93.3953 40.2556 93.9304 39.6273 94.6472 39.1756C95.3737 38.724 96.2868 38.4982 97.3864 38.4982C98.437 38.4982 99.3206 38.724 100.037 39.1756C100.754 39.6174 101.294 40.2458 101.657 41.0607C102.03 41.8658 102.217 42.8133 102.217 43.9031ZM93.9108 43.9031C93.9108 44.7867 94.0335 45.5476 94.279 46.1858C94.5244 46.824 94.9024 47.3149 95.413 47.6585C95.9333 48.0022 96.5863 48.174 97.3717 48.174C98.167 48.174 98.815 48.0022 99.3157 47.6585C99.8263 47.3149 100.204 46.824 100.45 46.1858C100.695 45.5476 100.818 44.7867 100.818 43.9031C100.818 42.5776 100.543 41.5418 99.9932 40.7956C99.4433 40.0396 98.5744 39.6616 97.3864 39.6616C96.5912 39.6616 95.9333 39.8334 95.413 40.1771C94.9024 40.5109 94.5244 40.9969 94.279 41.6351C94.0335 42.2634 93.9108 43.0194 93.9108 43.9031ZM113.87 43.9031C113.87 44.718 113.767 45.4593 113.561 46.1269C113.355 46.7847 113.045 47.3542 112.633 47.8353C112.231 48.3163 111.725 48.6845 111.116 48.9398C110.517 49.1951 109.82 49.3227 109.025 49.3227C108.2 49.3227 107.483 49.1951 106.875 48.9398C106.266 48.6747 105.76 48.3065 105.358 47.8353C104.955 47.3542 104.656 46.7798 104.459 46.1122C104.263 45.4445 104.165 44.7033 104.165 43.8884C104.165 42.8084 104.342 41.8658 104.695 41.0607C105.049 40.2556 105.584 39.6273 106.3 39.1756C107.027 38.724 107.94 38.4982 109.04 38.4982C110.09 38.4982 110.974 38.724 111.691 39.1756C112.407 39.6174 112.947 40.2458 113.311 41.0607C113.684 41.8658 113.87 42.8133 113.87 43.9031ZM105.564 43.9031C105.564 44.7867 105.687 45.5476 105.932 46.1858C106.178 46.824 106.556 47.3149 107.066 47.6585C107.587 48.0022 108.239 48.174 109.025 48.174C109.82 48.174 110.468 48.0022 110.969 47.6585C111.479 47.3149 111.857 46.824 112.103 46.1858C112.348 45.5476 112.471 44.7867 112.471 43.9031C112.471 42.5776 112.196 41.5418 111.646 40.7956C111.097 40.0396 110.228 39.6616 109.04 39.6616C108.244 39.6616 107.587 39.8334 107.066 40.1771C106.556 40.5109 106.178 40.9969 105.932 41.6351C105.687 42.2634 105.564 43.0194 105.564 43.9031ZM119.249 38.6602C120.123 38.6602 120.84 38.7731 121.399 38.9989C121.969 39.2149 122.391 39.5438 122.666 39.9856C122.941 40.4274 123.078 40.9822 123.078 41.6498C123.078 42.2094 122.975 42.6758 122.769 43.0489C122.563 43.422 122.298 43.7214 121.974 43.9473C121.659 44.1633 121.326 44.3351 120.972 44.4627L123.859 49.1754H122.312L119.765 44.8309H117.673V49.1754H116.348V38.6602H119.249ZM119.175 39.8089H117.673V43.7116H119.249C119.819 43.7116 120.285 43.638 120.648 43.4907C121.011 43.3336 121.277 43.1078 121.443 42.8133C121.62 42.5187 121.709 42.1505 121.709 41.7087C121.709 41.2473 121.615 40.8791 121.429 40.6042C121.252 40.3293 120.977 40.128 120.604 40.0003C120.231 39.8727 119.755 39.8089 119.175 39.8089ZM133.344 49.1754H131.783L128.057 44.1534L126.982 45.096V49.1754H125.656V38.6602H126.982V43.8442C127.276 43.5104 127.576 43.1765 127.88 42.8427C128.185 42.5089 128.489 42.1751 128.793 41.8413L131.636 38.6602H133.182L129.014 43.2404L133.344 49.1754ZM140.798 49.1754H134.922V38.6602H140.798V39.8236H136.247V43.1078H140.533V44.2565H136.247V48.012H140.798V49.1754ZM149.129 49.1754H143.253V38.6602H149.129V39.8236H144.578V43.1078H148.864V44.2565H144.578V48.012H149.129V49.1754Z" fill="#005D80"/>
  </g>
  <defs>
    <clipPath id="clip0_214_860">
      <rect width="149.727" height="54" fill="white" transform="translate(0.325195 0.575439)"/>
    </clipPath>
  </defs>
</svg>