<svg xmlns="http://www.w3.org/2000/svg" width="119" height="111" viewBox="0 0 119 111" fill="none">
  <g clip-path="url(#clip0_25_2272)">
    <path fill-rule="evenodd" clip-rule="evenodd" d="M98.2114 51.2791C98.2114 37.6791 93.0574 24.636 83.8833 15.0193C74.7094 5.4026 62.2667 0 49.2925 0C36.3183 0 23.8756 5.4026 14.7016 15.0193C5.52748 24.636 0.373535 37.6791 0.373535 51.2791C0.373535 64.879 5.52748 77.9223 14.7016 87.5389C23.8756 97.1555 36.3183 102.558 49.2925 102.558C62.2667 102.558 74.7094 97.1555 83.8833 87.5389C93.0574 77.9223 98.2114 64.879 98.2114 51.2791Z" fill="#009822"/>
    <path fill-rule="evenodd" clip-rule="evenodd" d="M95.1059 51.2791C95.1504 44.9428 93.9982 38.6599 91.7158 32.7924C89.4334 26.9252 86.0657 21.5892 81.807 17.0922C77.5484 12.5951 72.4826 9.02601 66.902 6.59037C61.3215 4.15476 55.3362 2.90082 49.2911 2.90082C43.246 2.90082 37.2608 4.15476 31.6802 6.59037C26.0996 9.02601 21.034 12.5951 16.7752 17.0922C12.5165 21.5892 9.14891 26.9252 6.86646 32.7924C4.584 38.6599 3.43182 44.9428 3.47634 51.2791C3.43182 57.6153 4.584 63.8982 6.86646 69.7657C9.14891 75.6329 12.5165 80.969 16.7752 85.4659C21.034 89.9631 26.0996 93.5321 31.6802 95.9677C37.2608 98.4033 43.246 99.6572 49.2911 99.6572C55.3362 99.6572 61.3215 98.4033 66.902 95.9677C72.4826 93.5321 77.5484 89.9631 81.807 85.4659C86.0657 80.969 89.4334 75.6329 91.7158 69.7657C93.9982 63.8982 95.1504 57.6153 95.1059 51.2791Z" fill="#009822"/>
    <path fill-rule="evenodd" clip-rule="evenodd" d="M90.0625 51.2791C90.1045 45.6386 89.0809 40.0454 87.0507 34.8219C85.0205 29.5981 82.0242 24.8473 78.2338 20.8433C74.4438 16.8394 69.9349 13.6614 64.9675 11.4927C60.0001 9.32405 54.672 8.20752 49.2909 8.20752C43.9098 8.20752 38.5819 9.32405 33.6143 11.4927C28.6469 13.6614 24.138 16.8394 20.3479 20.8433C16.5577 24.8473 13.5612 29.5981 11.531 34.8219C9.50089 40.0454 8.47732 45.6386 8.51931 51.2791C8.47732 56.9195 9.50089 62.5127 11.531 67.7363C13.5612 72.9601 16.5577 77.7109 20.3479 81.7149C24.138 85.7188 28.6469 88.8966 33.6143 91.0654C38.5819 93.2339 43.9098 94.3507 49.2909 94.3507C54.672 94.3507 60.0001 93.2339 64.9675 91.0654C69.9349 88.8966 74.4438 85.7188 78.2338 81.7149C82.0242 77.7109 85.0205 72.9601 87.0507 67.7363C89.0809 62.5127 90.1045 56.9195 90.0625 51.2791Z" fill="white"/>
    <path fill-rule="evenodd" clip-rule="evenodd" d="M82.0758 51.279C82.0758 42.164 78.6216 33.4224 72.4732 26.9771C66.3247 20.5317 57.9855 16.9108 49.2901 16.9108C40.5947 16.9108 32.2556 20.5317 26.1071 26.9771C19.9586 33.4224 16.5044 42.164 16.5044 51.279C16.5044 60.394 19.9586 69.1357 26.1071 75.581C32.2556 82.0264 40.5947 85.6473 49.2901 85.6473C57.9855 85.6473 66.3247 82.0264 72.4732 75.581C78.6216 69.1357 82.0758 60.394 82.0758 51.279Z" fill="#009822"/>
    <path fill-rule="evenodd" clip-rule="evenodd" d="M75.9045 51.2791C75.9045 47.6154 75.2161 43.9878 73.8788 40.6029C72.5412 37.2183 70.5808 34.1429 68.1097 31.5523C65.6383 28.9619 62.7045 26.9068 59.4756 25.5049C56.2467 24.1028 52.7861 23.3812 49.2911 23.3812C45.7962 23.3812 42.3355 24.1028 39.1066 25.5049C35.8777 26.9068 32.944 28.9619 30.4726 31.5523C28.0014 34.1429 26.041 37.2183 24.7036 40.6029C23.3661 43.9878 22.6777 47.6154 22.6777 51.2791C22.6777 54.9427 23.3661 58.5704 24.7036 61.9553C26.041 65.3399 28.0014 68.4153 30.4726 71.0059C32.944 73.5963 35.8777 75.6514 39.1066 77.0533C42.3355 78.4554 45.7962 79.1769 49.2911 79.1769C52.7861 79.1769 56.2467 78.4554 59.4756 77.0533C62.7045 75.6514 65.6383 73.5963 68.1097 71.0059C70.5808 68.4153 72.5412 65.3399 73.8788 61.9553C75.2161 58.5704 75.9045 54.9427 75.9045 51.2791Z" fill="white"/>
    <path fill-rule="evenodd" clip-rule="evenodd" d="M66.7346 51.2791C66.7346 46.4297 64.8967 41.7787 61.6253 38.3496C58.3542 34.9202 53.9172 32.9939 49.2909 32.9939C44.6646 32.9939 40.2276 34.9202 36.9562 38.3496C33.6851 41.7787 31.8472 46.4297 31.8472 51.2791C31.8472 56.1287 33.6851 60.7794 36.9562 64.2088C40.2276 67.6379 44.6646 69.5642 49.2909 69.5642C53.9172 69.5642 58.3542 67.6379 61.6253 64.2088C64.8967 60.7794 66.7346 56.1287 66.7346 51.2791Z" fill="#009822"/>
    <path fill-rule="evenodd" clip-rule="evenodd" d="M60.0592 51.279C60.0592 48.2852 58.9246 45.4138 56.9048 43.2966C54.8853 41.1795 52.1461 39.9902 49.2898 39.9902C46.4336 39.9902 43.6944 41.1795 41.6749 43.2966C39.6551 45.4138 38.5205 48.2852 38.5205 51.279C38.5205 54.2729 39.6551 57.1443 41.6749 59.2614C43.6944 61.3786 46.4336 62.5678 49.2898 62.5678C52.1461 62.5678 54.8853 61.3786 56.9048 59.2614C58.9246 57.1443 60.0592 54.2729 60.0592 51.279Z" fill="white"/>
    <path d="M52.91 52.2906L51.395 55.4636L107.134 98.9953L108.649 95.8223L52.91 52.2906Z" fill="#007995"/>
    <path fill-rule="evenodd" clip-rule="evenodd" d="M46.7085 50.0317L53.4609 61.3217L52.5631 54.4856L60.0374 54.0188L46.7085 50.0317Z" fill="#007995"/>
    <path fill-rule="evenodd" clip-rule="evenodd" d="M94.5103 84.8032L108.633 95.9302L117.832 96.4199L105.222 86.8267L94.5103 84.8032Z" fill="#007995"/>
    <path fill-rule="evenodd" clip-rule="evenodd" d="M92.6133 87.1679L106.724 98.3116L109.342 107.143L97.0756 97.1139L92.6133 87.1679Z" fill="#007995"/>
    <path fill-rule="evenodd" clip-rule="evenodd" d="M93.2354 85.6783L106.438 95.0015L114.915 103.069L103.133 94.6433L93.2354 85.6783Z" fill="url(#paint0_linear_25_2272)"/>
  </g>
  <defs>
    <linearGradient id="paint0_linear_25_2272" x1="73.6849" y1="212.531" x2="93.1482" y2="212.298" gradientUnits="userSpaceOnUse">
      <stop stop-color="#00956F"/>
      <stop offset="1" stop-color="#11B8DE"/>
    </linearGradient>
    <clipPath id="clip0_25_2272">
      <rect width="118.254" height="110.801" fill="white" transform="translate(0.373535)"/>
    </clipPath>
  </defs>
</svg>